# xmcd
#
# Track frame offsets: 
#        150
#        1527
#        18482
#        33507
#        40961
#        59380
#        72678
#        90039
#        112133
#        131613
#        158814
#        170587
#        192157
#        222558
#        235058
#        256374
#        277627
#        299497
#        312477
#        328248
#        351263
#
# Disc length: 4775 seconds
#
# Revision: 0
# Processed by: cddbd v1.5.2PL0 Copyright (c) Steve Scherf et al.
# Submitted via: ExactAudioCopy v1.3
#
DISCID=3712a515
DTITLE=Tom Waits - Tuscon ('75)
DYEAR=2017
DGENRE=Blues
TTITLE0=Dave Gordon Intro
TTITLE1=Diamonds on My Windshield
TTITLE2=Rosie
TTITLE3=New Coat of Paint
TTITLE4=Tom Gets Hustled at 9 Ball
TTITLE5=Better Off Without a Wife
TTITLE6=Truck Driver's Wife - Semi Suite
TTITLE7=Travelling Salesman - On a Foggy Night
TTITLE8=Formula 44 vs Nyquil - (Looking for) The Heart of Saturday Nig
TTITLE8=ht
TTITLE9=Easy Street
TTITLE10=Denver's Terminal Bar - Fumblin' With the Blues
TTITLE11=Motel 6 Magic Fingers - San Diego Serenade
TTITLE12=Bus Culture - The Ghost of Saturday Night
TTITLE13=Ice Cream Man
TTITLE14=Drunk on the Moon
TTITLE15=Big Joe and Phantom 309
TTITLE16=Ol' 55
TTITLE17=Nobody
TTITLE18=Depot, Depot
TTITLE19=Please Call Me, Baby
TTITLE20=DJ Outro
EXTD=
EXTT0=
EXTT1=
EXTT2=
EXTT3=
EXTT4=
EXTT5=
EXTT6=
EXTT7=
EXTT8=
EXTT9=
EXTT10=
EXTT11=
EXTT12=
EXTT13=
EXTT14=
EXTT15=
EXTT16=
EXTT17=
EXTT18=
EXTT19=
EXTT20=
PLAYORDER=
